<?xml version="1.0" standalone="no"?>
<!DOCTYPE svg PUBLIC "-//W3C//DTD SVG 20010904//EN"
 "http://www.w3.org/TR/2001/REC-SVG-20010904/DTD/svg10.dtd">
<svg version="1.0" xmlns="http://www.w3.org/2000/svg"
 width="602.000000pt" height="602.000000pt" viewBox="0 0 602.000000 602.000000"
 preserveAspectRatio="xMidYMid meet">
<metadata>
Created by potrace 1.14, written by Peter Selinger 2001-2017
</metadata>
<g transform="translate(0.000000,602.000000) scale(0.100000,-0.100000)"
fill="#000000" stroke="none">
<path d="M629 6018 c-1 -2 -2 -166 -3 -365 l-1 -363 40 -1 c22 0 464 0 983 -1
865 0 942 -2 943 -17 0 -9 1 -1198 1 -2644 l1 -2627 408 0 409 0 0 2644 0
2644 968 0 c532 1 978 1 992 1 l25 1 0 363 0 362 -2383 3 c-1310 1 -2383 1
-2383 0z"/>
</g>
</svg>
